<svg width="192" height="49" viewBox="0 0 192 49" fill="none" xmlns="http://www.w3.org/2000/svg">
<rect x="129" y="4.5" width="39" height="40" rx="5" fill="#2A86FE"/>
<path d="M8.384 35.98C7.01867 35.98 5.664 35.852 4.32 35.596C2.976 35.34 1.87733 34.9987 1.024 34.572V30.284C2.15467 30.8387 3.328 31.2547 4.544 31.532C5.76 31.8093 6.92267 31.948 8.032 31.948C9.26933 31.948 10.208 31.7347 10.848 31.308C11.488 30.8813 11.808 30.284 11.808 29.516C11.808 28.9613 11.648 28.492 11.328 28.108C11.008 27.724 10.5387 27.3827 9.92 27.084C9.32267 26.764 8.39467 26.348 7.136 25.836C5.04533 24.9827 3.53067 24.0333 2.592 22.988C1.65333 21.9213 1.184 20.6093 1.184 19.052C1.184 17.7933 1.52533 16.684 2.208 15.724C2.89067 14.7427 3.85067 13.9853 5.088 13.452C6.32533 12.9187 7.75467 12.652 9.376 12.652C10.6987 12.652 11.872 12.7587 12.896 12.972C13.92 13.1853 14.9227 13.516 15.904 13.964V18.124C14.0267 17.1853 12.1493 16.716 10.272 16.716C9.07733 16.716 8.13867 16.9293 7.456 17.356C6.77333 17.7613 6.432 18.348 6.432 19.116C6.432 19.6707 6.592 20.1293 6.912 20.492C7.232 20.8547 7.68 21.1747 8.256 21.452C8.832 21.7293 9.77067 22.1347 11.072 22.668C12.5867 23.308 13.7707 23.9267 14.624 24.524C15.4773 25.1 16.1067 25.7933 16.512 26.604C16.9173 27.3933 17.12 28.3747 17.12 29.548C17.12 31.5747 16.384 33.1533 14.912 34.284C13.4613 35.4147 11.2853 35.98 8.384 35.98ZM25.4948 35.98C23.4041 35.98 21.8361 35.4147 20.7908 34.284C19.7454 33.132 19.2228 31.6067 19.2228 29.708V20.14H24.0548V29.196C24.0548 31.2013 24.9828 32.204 26.8388 32.204C27.6494 32.204 28.4068 32.012 29.1108 31.628C29.8148 31.244 30.4014 30.668 30.8708 29.9V20.14H35.7028V35.5H31.0308V33.644C30.3481 34.4333 29.5161 35.02 28.5348 35.404C27.5748 35.788 26.5614 35.98 25.4948 35.98ZM39.0703 20.14H43.5823V21.996C44.2436 21.2493 45.0116 20.6733 45.8863 20.268C46.7609 19.8627 47.6676 19.66 48.6063 19.66C49.7796 19.66 50.7183 19.852 51.4223 20.236C52.1263 20.5987 52.6809 21.1427 53.0863 21.868C53.7476 21.164 54.5476 20.62 55.4862 20.236C56.4463 19.852 57.3956 19.66 58.3343 19.66C60.2969 19.66 61.6943 20.1613 62.5263 21.164C63.3796 22.1667 63.8063 23.6173 63.8063 25.516V35.5H59.1983V26.188C59.1983 25.2067 59.0063 24.5027 58.6223 24.076C58.2383 23.6493 57.6196 23.436 56.7663 23.436C55.5716 23.436 54.6116 23.9053 53.8863 24.844C53.9289 25.5267 53.9503 26.0813 53.9503 26.508V35.5H49.3103V26.028C49.3103 25.0893 49.1396 24.428 48.7983 24.044C48.4783 23.6387 47.9129 23.436 47.1023 23.436C45.8436 23.436 44.7236 24.1507 43.7423 25.58V35.5H39.0703V20.14ZM67.0078 20.14H71.5198V21.996C72.1811 21.2493 72.9491 20.6733 73.8238 20.268C74.6984 19.8627 75.6051 19.66 76.5438 19.66C77.7171 19.66 78.6558 19.852 79.3598 20.236C80.0638 20.5987 80.6184 21.1427 81.0238 21.868C81.6851 21.164 82.4851 20.62 83.4237 20.236C84.3838 19.852 85.3331 19.66 86.2718 19.66C88.2344 19.66 89.6318 20.1613 90.4638 21.164C91.3171 22.1667 91.7438 23.6173 91.7438 25.516V35.5H87.1358V26.188C87.1358 25.2067 86.9438 24.5027 86.5598 24.076C86.1758 23.6493 85.5571 23.436 84.7038 23.436C83.5091 23.436 82.5491 23.9053 81.8238 24.844C81.8664 25.5267 81.8878 26.0813 81.8878 26.508V35.5H77.2478V26.028C77.2478 25.0893 77.0771 24.428 76.7358 24.044C76.4158 23.6387 75.8504 23.436 75.0398 23.436C73.7811 23.436 72.6611 24.1507 71.6798 25.58V35.5H67.0078V20.14ZM100.205 35.98C98.3272 35.98 96.7912 35.5107 95.5965 34.572C94.4232 33.612 93.8365 32.3107 93.8365 30.668C93.8365 28.9613 94.4018 27.6387 95.5325 26.7C96.6632 25.74 98.2632 25.26 100.333 25.26C101.25 25.26 102.125 25.356 102.957 25.548C103.789 25.74 104.525 26.0067 105.165 26.348V25.964C105.165 25.004 104.823 24.3 104.141 23.852C103.458 23.404 102.413 23.18 101.005 23.18C99.1272 23.18 97.3992 23.532 95.8205 24.236V20.716C96.5032 20.4173 97.3885 20.172 98.4765 19.98C99.5645 19.7667 100.653 19.66 101.741 19.66C104.514 19.66 106.583 20.236 107.949 21.388C109.314 22.5187 109.997 24.108 109.997 26.156V35.5H105.453V34.092C104.151 35.3507 102.402 35.98 100.205 35.98ZM101.517 32.78C102.306 32.78 103.021 32.6307 103.661 32.332C104.301 32.0333 104.802 31.6173 105.165 31.084V29.548C104.077 28.8227 102.882 28.46 101.581 28.46C100.685 28.46 99.9912 28.652 99.5005 29.036C99.0312 29.3987 98.7965 29.9427 98.7965 30.668C98.7965 31.3507 99.0312 31.8733 99.5005 32.236C99.9698 32.5987 100.642 32.78 101.517 32.78ZM113.195 20.14H117.867V22.348C118.486 21.6013 119.35 21.036 120.459 20.652C121.569 20.2467 122.827 20.044 124.235 20.044V23.724C122.763 23.724 121.462 23.948 120.331 24.396C119.222 24.844 118.454 25.5267 118.027 26.444V35.5H113.195V20.14Z" fill="#171717"/>
<path d="M142.32 17.772C141.573 17.772 140.944 17.5267 140.432 17.036C139.92 16.5453 139.664 15.9267 139.664 15.18C139.664 14.4547 139.92 13.8467 140.432 13.356C140.944 12.844 141.573 12.588 142.32 12.588C143.067 12.588 143.696 12.844 144.208 13.356C144.72 13.8467 144.976 14.4547 144.976 15.18C144.976 15.9267 144.72 16.5453 144.208 17.036C143.696 17.5267 143.067 17.772 142.32 17.772ZM139.888 20.14H144.752V35.5H139.888V20.14ZM154.721 35.98C152.929 35.98 151.564 35.4893 150.625 34.508C149.708 33.5053 149.249 32.1187 149.249 30.348V23.628H147.009V20.14H149.249V15.532H154.081V20.14H157.697V23.628H154.081V29.708C154.081 30.604 154.252 31.2547 154.593 31.66C154.934 32.044 155.542 32.236 156.417 32.236C157.121 32.236 157.793 32.0653 158.433 31.724V35.34C157.452 35.7667 156.214 35.98 154.721 35.98Z" fill="white"/>
<path d="M182.496 35.98C179.552 35.98 177.237 35.276 175.552 33.868C173.867 32.4387 173.024 30.444 173.024 27.884C173.024 25.3453 173.771 23.34 175.264 21.868C176.779 20.396 178.933 19.66 181.728 19.66C183.563 19.66 185.12 20.0013 186.4 20.684C187.68 21.3667 188.651 22.316 189.312 23.532C189.973 24.7267 190.304 26.0813 190.304 27.596V29.548H177.632C177.973 31.5107 179.808 32.492 183.136 32.492C184.117 32.492 185.131 32.4067 186.176 32.236C187.221 32.0653 188.128 31.8307 188.896 31.532V34.924C188.149 35.244 187.189 35.5 186.016 35.692C184.843 35.884 183.669 35.98 182.496 35.98ZM185.728 26.412C185.664 25.388 185.28 24.5987 184.576 24.044C183.872 23.468 182.901 23.18 181.664 23.18C180.448 23.18 179.488 23.468 178.784 24.044C178.08 24.62 177.696 25.4093 177.632 26.412H185.728Z" fill="#171717"/>
<path d="M155 14.5V4.5H164V14.5L159.5 11.1667L155 14.5Z" fill="white"/>
</svg>
