<svg width="54" height="49" viewBox="0 0 54 49" fill="none" xmlns="http://www.w3.org/2000/svg">
<path d="M26.5 48.5L0.5 22.5L0 22L26.5 11.5L53 38L26.5 48.5Z" fill="#3967A4"/>
<path d="M30.5 46.5L4.5 20.5L4 20L27 8L53.5 34.5L30.5 46.5Z" fill="#8AA4C5"/>
<path d="M30.5 46.5L4.5 20.5L4 20L27 3L53.5 29.5L30.5 46.5Z" fill="#9DBFEC"/>
<path d="M26.5 48.5L0.5 22.5L0 22L22 0L48.5 26.5L26.5 48.5Z" fill="#2A86FE"/>
<path d="M18.4733 23.4487C18.1458 23.7812 17.7606 23.9539 17.3175 23.9667C16.8745 23.9795 16.4867 23.8222 16.1542 23.4948C15.8312 23.1767 15.6728 22.796 15.6788 22.3528C15.6753 21.9003 15.8373 21.5078 16.1648 21.1753C16.4922 20.8428 16.8822 20.6748 17.3348 20.6714C17.7778 20.6585 18.1608 20.8112 18.4838 21.1293C18.8163 21.4567 18.9795 21.842 18.9735 22.2852C18.9675 22.7284 18.8007 23.1162 18.4733 23.4487ZM18.4612 25.5702L20.5943 23.4042L27.4343 30.1403L25.3011 32.3063L18.4612 25.5702Z" fill="white"/>
<path d="M32.0199 25.9116C31.234 26.7095 30.4168 27.1024 29.5681 27.09C28.7193 27.0588 27.9007 26.6549 27.1122 25.8784L24.1197 22.9313L23.1373 23.9288L21.5841 22.3992L22.5665 21.4017L20.5145 19.3808L22.6335 17.2291L24.6855 19.2499L26.2713 17.6397L27.8246 19.1694L26.2388 20.7796L28.9462 23.446C29.3452 23.8389 29.7098 24.0483 30.04 24.074C30.3607 24.0904 30.7129 23.9039 31.0964 23.5144C31.4052 23.2009 31.6239 22.8268 31.7526 22.3921L33.3628 23.9779C33.1224 24.602 32.6748 25.2466 32.0199 25.9116Z" fill="white"/>
</svg>
